<svg width="400" height="400" viewBox="0 0 400 400" fill="none" xmlns="http://www.w3.org/2000/svg">
<path d="M-6.10352e-05 23.663C-6.10352e-05 19.2447 3.58166 15.663 7.99994 15.663H94.0697C98.4879 15.663 102.07 19.2447 102.07 23.663V391.696C102.07 396.115 98.4879 399.696 94.0697 399.696H7.99993C3.58165 399.696 -6.10352e-05 396.115 -6.10352e-05 391.696V23.663Z" fill="#5C67CD"/>
<path d="M220.038 34.4767C219.084 30.1627 221.769 25.7354 226.036 24.5881L309.748 2.07735C314.015 0.930006 318.247 3.49709 319.201 7.8111L398.272 365.286C399.226 369.6 396.541 374.028 392.274 375.175L308.562 397.686C304.296 398.833 300.063 396.266 299.109 391.952L220.038 34.4767Z" fill="#5C67CD"/>
<path d="M118.111 23.9722C118.089 19.554 121.653 15.9508 126.071 15.9242L212.14 15.4073C216.558 15.3807 220.157 18.9409 220.179 23.3591L221.998 391.387C222.019 395.805 218.455 399.408 214.037 399.435L127.969 399.952C123.551 399.978 119.951 396.418 119.929 392L118.111 23.9722Z" fill="#5C67CD"/>
</svg>
