<svg width="400" height="400" viewBox="0 0 400 400" fill="none" xmlns="http://www.w3.org/2000/svg">
<path d="M0 23.663C0 19.2447 3.58172 15.663 8 15.663H94.0697C98.488 15.663 102.07 19.2447 102.07 23.663V391.696C102.07 396.115 98.488 399.696 94.0697 399.696H7.99999C3.58171 399.696 0 396.115 0 391.696V23.663Z" fill="#222326"/>
<path d="M220.038 34.4768C219.084 30.1628 221.769 25.7355 226.036 24.5882L309.748 2.07747C314.015 0.930128 318.247 3.49722 319.202 7.81122L398.272 365.287C399.226 369.601 396.541 374.028 392.274 375.175L308.562 397.686C304.296 398.833 300.063 396.266 299.109 391.952L220.038 34.4768Z" fill="#222326"/>
<path d="M118.111 23.9722C118.089 19.554 121.653 15.9508 126.071 15.9242L212.14 15.4073C216.558 15.3807 220.157 18.9409 220.179 23.3591L221.998 391.387C222.019 395.805 218.455 399.408 214.037 399.435L127.969 399.952C123.551 399.978 119.951 396.418 119.929 392L118.111 23.9722Z" fill="#222326"/>
</svg>
