<svg width="1599" height="400" viewBox="0 0 1599 400" fill="none" xmlns="http://www.w3.org/2000/svg">
<path d="M750.75 246.95C750.75 262.817 746.667 276.933 738.5 289.3C730.333 301.433 718.667 311 703.5 318C688.567 325 670.483 328.5 649.25 328.5C628.25 328.5 609.933 325 594.3 318C578.9 310.767 566.767 300.617 557.9 287.55C549.033 274.483 543.9 259.083 542.5 241.35H596.4C597.1 255.35 601.767 266.433 610.4 274.6C619.267 282.767 631.867 286.85 648.2 286.85C657.3 286.85 665.233 285.567 672 283C679 280.433 684.483 276.7 688.45 271.8C692.417 266.9 694.4 261.183 694.4 254.65C694.4 246.717 691.483 240.417 685.65 235.75C679.817 230.85 671.533 227.35 660.8 225.25L619.5 217.2C609.933 215.567 601.067 212.883 592.9 209.15C584.733 205.417 577.617 200.75 571.55 195.15C565.483 189.55 560.7 182.783 557.2 174.85C553.7 166.917 551.95 157.817 551.95 147.55C551.95 132.617 555.917 119.317 563.85 107.65C572.017 95.9833 583.1 86.8833 597.1 80.35C611.333 73.8166 627.55 70.55 645.75 70.55C664.65 70.55 681.45 74.05 696.15 81.05C710.85 88.05 722.75 97.9666 731.85 110.8C740.95 123.4 745.967 138.45 746.9 155.95H693C692.533 147.083 690.2 139.383 686 132.85C682.033 126.083 676.667 120.95 669.9 117.45C663.133 113.717 655.317 111.85 646.45 111.85C637.817 111.85 630.467 113.367 624.4 116.4C618.567 119.2 614.017 123.05 610.75 127.95C607.483 132.617 605.85 137.983 605.85 144.05C605.85 149.65 607.367 154.317 610.4 158.05C613.667 161.783 617.867 164.817 623 167.15C628.133 169.25 633.733 170.883 639.8 172.05L682.85 180.8C705.017 185.233 721.817 192.817 733.25 203.55C744.917 214.05 750.75 228.517 750.75 246.95ZM829.43 223.15V325H780.78V73.7H829.43V162.6C835.73 153.967 843.08 147.2 851.48 142.3C860.113 137.167 870.613 134.6 882.98 134.6C901.88 134.6 917.163 140.667 928.83 152.8C940.497 164.7 946.33 181.85 946.33 204.25V325H898.03V220.7C898.03 206.7 895.23 196.083 889.63 188.85C884.263 181.383 876.097 177.65 865.13 177.65C858.597 177.65 852.53 179.4 846.93 182.9C841.563 186.167 837.247 191.183 833.98 197.95C830.947 204.483 829.43 212.883 829.43 223.15ZM1064.45 328.15C1045.78 328.15 1029.33 324.183 1015.1 316.25C1001.1 308.083 990.251 296.65 982.551 281.95C974.851 267.25 971.001 250.217 971.001 230.85C971.001 212.183 974.967 195.617 982.901 181.15C990.834 166.683 1001.8 155.367 1015.8 147.2C1029.8 138.8 1045.78 134.6 1063.75 134.6C1078.45 134.6 1091.75 137.4 1103.65 143C1115.78 148.367 1125.93 156.067 1134.1 166.1C1142.27 176.133 1148.1 187.8 1151.6 201.1C1155.1 214.167 1155.68 228.283 1153.35 243.45H999.701V212.65H1101.9C1101.43 199.583 1097.58 189.317 1090.35 181.85C1083.35 174.15 1074.13 170.3 1062.7 170.3C1053.6 170.3 1045.9 172.633 1039.6 177.3C1033.3 181.967 1028.4 188.85 1024.9 197.95C1021.63 206.817 1020 217.783 1020 230.85C1020 243.683 1021.63 254.533 1024.9 263.4C1028.17 272.267 1033.07 279.033 1039.6 283.7C1046.13 288.367 1054.07 290.7 1063.4 290.7C1074.13 290.7 1083 288.133 1090 283C1097 277.867 1101.9 270.75 1104.7 261.65H1153C1147.63 282.65 1137.25 298.983 1121.85 310.65C1106.45 322.317 1087.32 328.15 1064.45 328.15ZM1229.94 325H1180.94V73.7H1229.94V325ZM1334.71 325H1286.41V179.75H1248.61V138.1H1286.41V127.95C1286.41 109.283 1291.31 94.9333 1301.11 84.9C1311.15 74.8667 1325.85 69.85 1345.21 69.85C1351.28 69.85 1356.76 70.4333 1361.66 71.6C1366.8 72.5333 1371.35 73.8167 1375.31 75.45V113.95C1372.75 112.783 1369.83 111.967 1366.56 111.5C1363.3 111.033 1360.03 110.8 1356.76 110.8C1350.23 110.8 1344.86 112.2 1340.66 115C1336.7 117.8 1334.71 122.467 1334.71 129V138.1H1383.36V179.75H1334.71V325ZM1517.11 246.25V138.1H1565.41V325H1520.96V300.5C1516.06 308.667 1508.71 315.433 1498.91 320.8C1489.11 325.933 1478.26 328.5 1466.36 328.5C1453.99 328.5 1442.91 325.933 1433.11 320.8C1423.31 315.667 1415.61 307.85 1410.01 297.35C1404.41 286.617 1401.61 273.2 1401.61 257.1V138.1H1450.26V247.65C1450.26 260.717 1453.17 270.283 1459.01 276.35C1465.07 282.417 1473.01 285.45 1482.81 285.45C1488.64 285.45 1494.12 283.933 1499.26 280.9C1504.62 277.867 1508.94 273.433 1512.21 267.6C1515.47 261.533 1517.11 254.417 1517.11 246.25Z" fill="#222326"/>
<path d="M0 23.6628C0 19.2446 3.58172 15.6628 8 15.6628H94.0697C98.488 15.6628 102.07 19.2446 102.07 23.6628V391.696C102.07 396.114 98.488 399.696 94.0697 399.696H7.99999C3.58171 399.696 0 396.114 0 391.696V23.6628Z" fill="#222326"/>
<path d="M220.038 34.4768C219.084 30.1628 221.769 25.7355 226.036 24.5881L309.748 2.07742C314.015 0.930074 318.247 3.49716 319.202 7.81116L398.272 365.286C399.226 369.6 396.541 374.028 392.274 375.175L308.562 397.686C304.296 398.833 300.063 396.266 299.109 391.952L220.038 34.4768Z" fill="#222326"/>
<path d="M118.111 23.9723C118.089 19.554 121.653 15.9508 126.071 15.9243L212.14 15.4073C216.558 15.3808 220.157 18.941 220.179 23.3592L221.998 391.387C222.019 395.805 218.455 399.408 214.037 399.435L127.969 399.952C123.551 399.979 119.951 396.418 119.929 392L118.111 23.9723Z" fill="#222326"/>
</svg>
